<svg width="250" height="250" viewBox="0 0 250 250" fill="none" xmlns="http://www.w3.org/2000/svg">
<g filter="url(#filter0_i_73_356)">
<path d="M164.274 183.758C157.315 188.38 149.774 190.918 141.36 190.919C126.409 190.921 111.457 190.926 96.5055 190.922C93.5752 190.921 92.9744 190.361 92.968 187.552C92.9517 180.368 92.9625 173.183 92.9625 165.78C93.7933 165.78 94.4642 165.78 95.1352 165.78C109.393 165.778 123.651 165.801 137.908 165.762C146.676 165.738 153.469 159.845 154.168 151.542C154.901 142.832 146.27 135.146 139.228 135.656C135.215 135.947 131.157 135.649 127.12 135.705C125.477 135.728 124.746 135.288 124.771 133.563C124.861 127.218 124.807 120.872 124.807 114.27C125.928 114.27 126.911 114.265 127.894 114.27C131.237 114.287 134.581 114.321 137.924 114.321C144.971 114.323 150.595 110.76 152.938 104.834C155.321 98.8036 153.493 92.2166 148.26 87.8707C144.929 85.1037 141.066 83.8 136.648 83.8014C122.958 83.8057 109.268 83.7693 95.5785 83.7511C93.0082 83.7477 93.0024 83.7527 93 81.265C92.9942 75.0912 92.9786 68.9174 92.9984 62.7437C93.0082 59.6838 93.6551 59.0828 96.8929 59.0778C111.024 59.0558 125.157 59.1403 139.287 59.002C148.806 58.9088 157.043 62.0235 164.474 67.398C172.767 73.396 178.317 81.2469 180.373 90.9128C183.231 104.349 178.85 115.693 168.021 124.901C172.618 128.192 176.148 132.39 178.435 137.391C184.557 150.78 182.7 163.411 173.589 174.976C171.022 178.235 167.478 180.798 164.274 183.758Z" fill="#D45A01"/>
<path d="M83.5842 157.695C77.4668 157.833 73.0333 160.912 68.9886 164.519C68.7097 164.356 68.5228 164.307 68.5101 164.232C66.9559 155.002 69.5406 146.753 78.2886 142.467C80.507 141.379 83.206 140.735 85.703 140.682C95.4718 140.474 105.248 140.582 115.022 140.581C115.324 140.58 115.626 140.659 116.053 140.718C116.053 146.322 116.053 151.862 116.053 157.69C105.295 157.69 94.53 157.69 83.5842 157.695Z" fill="#D45A01"/>
<path d="M116.136 95.1823C116.144 99.1807 116.144 103.003 116.144 107.062C115.384 107.062 114.714 107.062 114.044 107.061C104.841 107.061 95.6379 107.111 86.4356 107.041C80.0301 106.992 74.4127 108.737 69.788 113.063C69.4436 113.385 68.9891 113.601 68.2981 114.055C67.8352 110.917 67.9042 108.035 68.5558 105.188C70.3676 97.274 77.3445 91.9876 85.6192 92.2069C95.3817 92.4657 105.158 92.2646 114.928 92.2664C115.234 92.2665 115.54 92.3062 116.128 92.3469C116.128 93.2607 116.128 94.1334 116.136 95.1823Z" fill="#D45A01"/>
<path d="M84.8132 77.8906C84.8091 79.5063 84.9181 80.955 84.7421 82.3718C84.679 82.8793 83.9596 83.6818 83.486 83.7182C78.1669 84.1271 73.4429 85.764 69.575 89.3689C69.3382 89.5897 68.955 89.6686 68.4161 89.9164C68.3415 89.2223 68.2409 88.7203 68.2404 88.2182C68.2329 79.7198 68.2245 71.2213 68.2469 62.723C68.255 59.6777 68.9637 59.0292 72.1593 59.0135C75.3718 58.9977 78.5845 58.996 81.7969 59.0133C84.2198 59.0264 84.7726 59.5535 84.7842 61.9111C84.81 67.1777 84.8058 72.4444 84.8132 77.8906Z" fill="#D45A01"/>
<path d="M116.149 125.019C116.148 127.473 116.148 129.747 116.148 132.177C115.638 132.236 115.165 132.338 114.691 132.339C108.13 132.351 101.568 132.312 95.0073 132.38C93.4536 132.396 92.9311 131.96 92.9591 130.444C93.0506 125.484 92.9934 120.523 92.9934 115.433C100.712 115.433 108.251 115.433 116.149 115.433C116.149 118.55 116.149 121.694 116.149 125.019Z" fill="#D45A01"/>
<path d="M77.4639 190.936C75.1302 190.946 72.9855 190.943 70.8412 190.971C69.4946 190.988 68.585 190.342 68.3978 189.155C66.6872 178.312 71.5344 168.462 83.5467 166.048C83.8489 165.987 84.1693 166.009 84.7181 165.979C84.753 166.576 84.8153 167.144 84.8147 167.712C84.8083 174.424 84.8011 181.136 84.7748 187.848C84.7641 190.585 84.4019 190.899 81.4376 190.918C80.176 190.926 78.9145 190.93 77.4639 190.936Z" fill="#D45A01"/>
<path d="M71.0558 123.274C74.3607 118.703 78.6342 115.919 84.5659 115.526C84.6598 116.019 84.7784 116.352 84.7788 116.687C84.7841 121.351 84.7385 126.016 84.789 130.68C84.8027 131.94 84.4372 132.5 83.0126 132.572C78.1782 132.816 74.0317 134.623 70.4995 137.766C70.0409 138.174 69.3568 138.353 68.7771 138.638C68.5797 138.109 68.252 137.59 68.2053 137.049C67.7911 132.255 68.2594 127.611 71.0558 123.274Z" fill="#D45A01"/>
</g>
<defs>
<filter id="filter0_i_73_356" x="0" y="0" width="254" height="254" filterUnits="userSpaceOnUse" color-interpolation-filters="sRGB">
<feFlood flood-opacity="0" result="BackgroundImageFix"/>
<feBlend mode="normal" in="SourceGraphic" in2="BackgroundImageFix" result="shape"/>
<feColorMatrix in="SourceAlpha" type="matrix" values="0 0 0 0 0 0 0 0 0 0 0 0 0 0 0 0 0 0 127 0" result="hardAlpha"/>
<feOffset dx="5" dy="5"/>
<feGaussianBlur stdDeviation="2"/>
<feComposite in2="hardAlpha" operator="arithmetic" k2="-1" k3="1"/>
<feColorMatrix type="matrix" values="0 0 0 0 0 0 0 0 0 0 0 0 0 0 0 0 0 0 0.25 0"/>
<feBlend mode="normal" in2="shape" result="effect1_innerShadow_73_356"/>
</filter>
</defs>
</svg>
